<svg xmlns="http://www.w3.org/2000/svg" version="1.1" xmlns:xlink="http://www.w3.org/1999/xlink" xmlns:svgjs="http://svgjs.dev/svgjs" width="188.97333" height="188.97333"><svg version="1.1" id="SvgjsSvg1039" width="188.97333" height="188.97333" viewBox="0 0 188.97333 188.97333" sodipodi:docname="favicon.svg" inkscape:version="1.4 (e7c3feb100, 2024-10-09)" inkscape:export-filename="favicon-32x32.png" inkscape:export-xdpi="16.256262" inkscape:export-ydpi="16.256262" xmlns:inkscape="http://www.inkscape.org/namespaces/inkscape" xmlns:sodipodi="http://sodipodi.sourceforge.net/DTD/sodipodi-0.dtd" xmlns="http://www.w3.org/2000/svg" xmlns:svg="http://www.w3.org/2000/svg">
  <defs id="SvgjsDefs1038">
    <clipPath clipPathUnits="userSpaceOnUse" id="SvgjsClipPath1037">
      <path d="M 0,141.73 H 141.73 V 0 H 0 Z" id="SvgjsPath1036"></path>
    </clipPath>
    <clipPath clipPathUnits="userSpaceOnUse" id="SvgjsClipPath1035">
      <path d="M 5.8916,138.335 H 136.342 V 2.83008 H 5.8916 Z" id="SvgjsPath1034"></path>
    </clipPath>
  </defs>
  <sodipodi:namedview id="SvgjsSodipodi:namedview1033" pagecolor="#ffffff" bordercolor="#000000" borderopacity="0.25" inkscape:showpageshadow="2" inkscape:pageopacity="0.0" inkscape:pagecheckerboard="0" inkscape:deskcolor="#d1d1d1" inkscape:zoom="1.673053" inkscape:cx="122.23163" inkscape:cy="108.18545" inkscape:window-width="1366" inkscape:window-height="761" inkscape:window-x="0" inkscape:window-y="0" inkscape:window-maximized="1" inkscape:current-layer="g82"></sodipodi:namedview>
  <g id="SvgjsG1032" inkscape:groupmode="layer" inkscape:label="Panyola 1796 Egyesület logó" transform="matrix(1.3333333,0,0,-1.3333333,0,188.97333)">
    <g id="SvgjsG1031" clip-path="url(#clipPath16)" style="fill:#f8f4f1;fill-opacity:1">
      <g id="SvgjsG1030" style="fill:#f8f4f1;fill-opacity:1">
        <g id="SvgjsG1029" style="fill:#f8f4f1;fill-opacity:1"></g>
        <g id="SvgjsG1028" style="fill:#f8f4f1;fill-opacity:1">
          <g clip-path="url(#clipPath24)" id="SvgjsG1027" style="fill:#f8f4f1;fill-opacity:1">
            <g transform="matrix(1.7636401,0,0,1.7636401,107.9708,76.631685)" id="SvgjsG1026" style="fill:#000000;fill-opacity:1">
              <path d="m 0,0 c -0.038,0.03 -0.075,0.062 -0.113,0.093 -0.165,-0.11 -0.329,-0.221 -0.592,-0.397 0.268,-0.112 0.41,-0.173 0.61,-0.257 C -0.057,-0.334 -0.028,-0.168 0,0 m -49.218,-1.21 c -0.013,-0.052 -0.026,-0.103 -0.04,-0.156 0.383,-0.173 0.76,-0.355 1.147,-0.518 0.381,-0.161 0.762,-0.325 1.157,-0.443 0.138,-0.042 0.314,0.048 0.474,0.078 -0.002,0.044 -0.004,0.087 -0.007,0.131 -0.91,0.302 -1.821,0.605 -2.731,0.908 m 2.649,-4.236 c -1.286,0.391 -3.033,-0.934 -3.346,-1.635 1.131,0.456 2.333,0.789 3.346,1.635 m 14.695,6.441 c 0.003,-0.062 0.007,-0.126 0.012,-0.189 0.755,-0.347 1.498,-0.726 2.274,-1.022 0.252,-0.096 0.651,-0.077 0.875,0.064 1.109,0.695 2.184,1.444 3.262,2.189 0.081,0.055 0.134,0.314 0.12,0.32 -0.427,0.214 -0.851,0.52 -1.304,0.575 C -27.043,2.98 -27.498,2.79 -27.91,2.641 -28.993,2.248 -30.066,1.828 -31.138,1.402 -31.396,1.3 -31.629,1.133 -31.874,0.995 m 16.856,-5.247 c -0.169,-0.031 -0.239,-0.025 -0.286,-0.056 -0.717,-0.473 -1.435,-0.946 -2.143,-1.432 -0.259,-0.179 -0.161,-0.385 0.054,-0.509 0.37,-0.211 0.756,-0.388 1.136,-0.579 0.856,-0.435 1.709,-0.872 2.569,-1.299 0.125,-0.061 0.299,-0.126 0.416,-0.086 0.852,0.292 1.525,0.861 2.148,1.488 0.049,0.05 -0.005,0.303 -0.083,0.358 -0.323,0.225 -0.672,0.415 -1.015,0.613 -0.645,0.372 -1.289,0.748 -1.942,1.107 -0.3,0.164 -0.621,0.289 -0.854,0.395 m -7.985,0.898 c 0.206,-0.175 0.316,-0.31 0.459,-0.383 1.096,-0.557 2.193,-1.116 3.304,-1.645 0.355,-0.168 0.73,-0.169 1.08,0.111 0.259,0.209 0.58,0.34 0.848,0.541 0.43,0.323 0.839,0.674 1.339,1.08 -1.214,0.76 -2.312,1.444 -3.406,2.133 -0.312,0.197 -0.598,0.172 -0.889,-0.043 -0.315,-0.234 -0.632,-0.468 -0.961,-0.681 -0.559,-0.363 -1.127,-0.708 -1.774,-1.113 m 17.266,0.916 c 0.103,0.037 0.205,0.045 0.273,0.097 0.837,0.631 1.674,1.262 2.501,1.904 0.234,0.181 0.149,0.377 -0.052,0.532 -0.264,0.204 -0.526,0.417 -0.809,0.593 -0.674,0.418 -1.343,0.849 -2.051,1.202 -0.211,0.105 -0.606,0.063 -0.809,-0.073 -0.883,-0.592 -1.729,-1.24 -2.58,-1.88 -0.119,-0.09 -0.184,-0.251 -0.275,-0.379 0.134,-0.093 0.257,-0.206 0.401,-0.276 0.562,-0.267 1.139,-0.5 1.69,-0.785 0.487,-0.251 0.945,-0.558 1.42,-0.833 0.089,-0.052 0.198,-0.069 0.291,-0.102 m -1.505,4.789 c 0.009,0.065 0.017,0.13 0.026,0.195 -0.299,0.184 -0.584,0.401 -0.9,0.547 -0.632,0.293 -1.321,0.482 -1.913,0.836 -0.617,0.368 -1.142,0.67 -1.844,0.175 -0.79,-0.558 -1.734,-0.883 -2.414,-1.62 -0.261,-0.283 -0.204,-0.432 0.1,-0.59 0.406,-0.21 0.806,-0.429 1.207,-0.65 0.637,-0.352 1.261,-0.736 1.918,-1.047 0.194,-0.092 0.539,-0.064 0.719,0.054 1.049,0.676 2.071,1.395 3.101,2.1 m -4.679,-3.704 c 0.018,0.062 0.025,0.216 0.102,0.319 0.298,0.397 0.091,0.578 -0.259,0.769 -0.976,0.535 -1.938,1.094 -2.905,1.641 -0.362,0.204 -0.698,0.161 -1.016,-0.102 -0.104,-0.086 -0.229,-0.144 -0.338,-0.222 -0.728,-0.518 -1.475,-1.013 -2.177,-1.564 -0.407,-0.318 -0.359,-0.489 0.088,-0.754 0.888,-0.526 1.809,-1.007 2.651,-1.599 0.445,-0.314 0.786,-0.334 1.196,-0.056 0.656,0.443 1.304,0.902 1.969,1.331 0.174,0.113 0.405,0.144 0.689,0.237 m -16.266,0.626 c 0.017,-0.055 0.034,-0.11 0.051,-0.166 0.238,-0.13 0.471,-0.271 0.716,-0.389 0.946,-0.456 1.936,-0.843 2.831,-1.384 0.512,-0.309 0.83,-0.239 1.207,0.104 0.045,0.041 0.096,0.076 0.149,0.106 0.758,0.443 1.525,0.875 2.273,1.335 0.394,0.242 0.406,0.424 0.033,0.687 -0.894,0.634 -1.818,1.229 -2.715,1.86 -0.516,0.363 -0.973,0.333 -1.437,-0.081 -0.133,-0.119 -0.316,-0.181 -0.467,-0.283 -0.882,-0.594 -1.761,-1.192 -2.641,-1.789 m 17.899,-5.271 c 0.216,0.123 0.455,0.226 0.655,0.38 0.882,0.679 1.755,1.369 2.627,2.06 0.367,0.291 0.37,0.599 -0.053,0.826 -1.046,0.558 -2.108,1.092 -3.183,1.592 -0.179,0.083 -0.491,0.016 -0.681,-0.09 -0.456,-0.255 -0.884,-0.564 -1.306,-0.871 -0.603,-0.436 -1.189,-0.896 -1.788,-1.337 -0.263,-0.192 -0.27,-0.332 0.021,-0.505 0.785,-0.47 1.551,-0.973 2.344,-1.428 0.418,-0.24 0.878,-0.406 1.364,-0.627 m -18.941,4.636 c -0.191,-0.077 -0.354,-0.118 -0.49,-0.2 -0.26,-0.16 -0.496,-0.359 -0.759,-0.511 -0.908,-0.524 -1.83,-1.025 -2.734,-1.554 -0.435,-0.256 -0.431,-0.444 0.012,-0.663 1.006,-0.494 2.02,-0.971 3.035,-1.447 0.54,-0.254 1.022,-0.261 1.584,0.091 1.061,0.667 2.196,1.216 3.294,1.824 0.134,0.074 0.233,0.21 0.348,0.316 -0.116,0.113 -0.212,0.267 -0.351,0.335 -0.862,0.421 -1.731,0.827 -2.603,1.229 -0.44,0.203 -0.888,0.385 -1.336,0.58 m 6.886,-9.284 c 0.083,-0.071 0.132,-0.151 0.189,-0.157 0.53,-0.067 1.06,-0.157 1.592,-0.173 1.068,-0.032 2.136,-0.02 3.205,-0.029 0.363,-0.004 0.755,-0.095 0.84,0.45 0.017,0.107 0.181,0.201 0.292,0.281 0.347,0.248 0.712,0.472 1.047,0.735 0.217,0.169 0.396,0.39 0.591,0.587 -0.226,0.211 -0.451,0.423 -0.678,0.634 -0.009,0.008 -0.029,0.006 -0.042,0.013 -0.873,0.422 -1.793,0.769 -2.601,1.29 -0.738,0.477 -1.338,0.499 -2.05,0.016 -0.844,-0.572 -1.723,-1.097 -2.606,-1.606 -0.171,-0.099 -0.437,-0.037 -0.659,-0.049 0.101,0.216 0.199,0.434 0.306,0.647 0.018,0.035 0.077,0.048 0.116,0.072 0.589,0.373 1.175,0.749 1.768,1.116 0.273,0.169 0.566,0.303 0.836,0.479 0.248,0.161 0.291,0.361 -0.006,0.523 -0.332,0.181 -0.68,0.335 -1.011,0.518 -0.68,0.376 -1.354,0.76 -2.026,1.15 -0.343,0.199 -0.679,0.27 -1.033,0.029 -0.252,-0.171 -0.502,-0.349 -0.768,-0.499 -0.834,-0.471 -1.68,-0.923 -2.513,-1.398 -0.225,-0.128 -0.422,-0.306 -0.707,-0.518 0.584,-0.292 1.057,-0.53 1.532,-0.765 1.388,-0.681 2.785,-1.347 4.164,-2.047 0.871,-0.44 0.921,-0.745 0.222,-1.299 m 34.375,9.071 c -0.201,0.12 -0.358,0.21 -0.511,0.308 C 10.089,-0.339 8.583,0.445 6.985,1.05 6.076,1.394 5.156,1.712 4.254,2.075 3.298,2.461 2.804,2.257 2.384,1.274 2.206,0.856 1.982,0.457 1.781,0.048 1.494,-0.533 1.389,-1.135 1.557,-1.774 1.618,-2.008 1.654,-2.248 1.698,-2.485 1.799,-3.036 1.869,-3.596 2.005,-4.137 2.187,-4.861 2.63,-5.447 3.095,-6.02 3.327,-6.306 3.566,-6.34 3.9,-6.232 c 0.709,0.229 1.432,0.416 2.144,0.637 0.799,0.249 1.576,0.536 2.244,1.075 0.954,0.771 1.804,1.684 2.996,2.134 0.333,0.126 0.688,0.357 0.748,0.811 m -28.666,3.547 c -0.004,0.061 -0.008,0.122 -0.012,0.183 -0.628,0.327 -1.261,0.651 -1.885,0.987 -0.214,0.114 -0.527,0.184 -0.411,0.545 0.112,0.348 0.416,0.319 0.688,0.296 0.127,-0.011 0.253,-0.087 0.371,-0.15 0.605,-0.325 1.195,-0.682 1.817,-0.966 0.206,-0.095 0.527,-0.079 0.74,0.014 0.314,0.139 0.568,0.407 0.865,0.593 1.12,0.7 2.243,1.395 3.374,2.079 0.293,0.176 0.504,0.001 0.708,-0.22 0.22,-0.238 0.444,-0.509 0.725,-0.646 0.874,-0.428 1.794,-0.764 2.66,-1.207 0.625,-0.318 1.2,-0.506 1.857,-0.117 0.109,0.065 0.304,-0.017 0.458,-0.032 C -4.724,3.185 -4.727,2.997 -4.821,2.899 -5.063,2.651 -5.021,2.516 -4.738,2.34 -3.834,1.776 -2.943,1.19 -2.05,0.611 c 0.288,-0.186 0.545,-0.199 0.845,0.011 0.228,0.159 0.542,0.194 0.773,0.35 C -0.12,1.181 0.353,0.704 0.567,1.24 0.708,1.593 0.875,1.935 1.033,2.281 1.07,2.364 1.128,2.439 1.158,2.525 1.252,2.787 1.244,3.004 0.919,3.104 0.338,3.283 -0.235,3.486 -0.818,3.659 c -1.094,0.324 -2.188,0.651 -3.29,0.946 -1.068,0.288 -2.149,0.526 -3.219,0.807 -1.211,0.318 -2.414,0.663 -3.69,0.564 -0.241,-0.019 -0.488,0.059 -0.73,0.052 -0.865,-0.026 -1.732,-0.041 -2.592,-0.116 -0.665,-0.059 -1.321,-0.207 -1.982,-0.307 -0.453,-0.068 -0.911,-0.107 -1.364,-0.184 -0.865,-0.148 -1.727,-0.313 -2.591,-0.473 -0.191,-0.035 -0.381,-0.078 -0.571,-0.123 -0.767,-0.18 -1.541,-0.339 -2.299,-0.554 -0.671,-0.19 -1.328,-0.437 -1.982,-0.681 -0.071,-0.027 -0.129,-0.291 -0.119,-0.296 0.359,-0.177 0.782,-0.536 1.083,-0.455 0.659,0.177 1.258,0.577 1.879,0.888 0.365,0.183 0.711,0.419 1.094,0.541 0.306,0.098 0.444,-0.088 0.346,-0.425 -0.121,-0.421 -0.49,-0.549 -0.81,-0.735 -0.422,-0.244 -0.864,-0.457 -1.271,-0.721 -0.085,-0.055 -0.127,-0.373 -0.074,-0.411 0.926,-0.666 1.87,-1.307 2.81,-1.955 0.271,-0.188 0.518,-0.19 0.8,0.007 0.544,0.382 1.119,0.722 1.663,1.101 0.378,0.262 0.73,0.56 1.093,0.843 m 9.666,-12.058 0.041,-0.182 c 0.633,0.142 1.264,0.283 1.896,0.427 0.296,0.068 0.592,0.137 0.887,0.209 0.589,0.146 1.204,0.23 1.76,0.454 0.844,0.342 1.646,0.783 2.468,1.18 0.479,0.23 0.96,0.462 1.445,0.68 0.269,0.12 0.35,0.283 0.181,0.536 -0.174,0.261 -0.35,0.521 -0.533,0.777 -0.773,1.076 -0.876,2.351 -1.072,3.599 -0.048,0.316 0.046,0.696 -0.326,0.892 -0.414,0.219 -0.829,0.438 -1.251,0.64 -0.094,0.046 -0.251,0.078 -0.327,0.031 -0.593,-0.361 -1.178,-0.738 -1.755,-1.125 -0.291,-0.195 -0.55,-0.437 -0.842,-0.628 -0.362,-0.236 -0.379,-0.418 0.006,-0.619 0.81,-0.423 1.649,-0.793 2.444,-1.24 0.796,-0.448 1.559,-0.956 2.321,-1.462 C 0.479,-5.986 0.486,-6.2 0.539,-6.348 0.417,-6.389 0.294,-6.471 0.176,-6.463 c -0.206,0.015 -0.432,0.04 -0.608,0.138 -1.505,0.838 -3.004,1.689 -4.501,2.545 -0.332,0.188 -0.656,0.256 -0.992,0.038 -0.266,-0.172 -0.529,-0.354 -0.784,-0.544 -0.769,-0.575 -1.546,-1.139 -2.293,-1.74 -0.398,-0.321 -0.356,-0.564 0.082,-0.8 0.431,-0.231 0.881,-0.426 1.3,-0.675 0.69,-0.41 1.368,-0.843 2.037,-1.288 0.102,-0.067 0.127,-0.247 0.187,-0.376 -0.148,-0.038 -0.296,-0.098 -0.447,-0.108 -0.078,-0.004 -0.162,0.076 -0.242,0.121 -1.14,0.644 -2.276,1.293 -3.42,1.931 -0.391,0.218 -0.738,0.271 -1.164,-0.056 -1.072,-0.828 -2.196,-1.591 -3.307,-2.37 -0.446,-0.313 -0.917,-0.594 -1.364,-0.908 -0.098,-0.068 -0.144,-0.21 -0.215,-0.317 0.114,-0.051 0.223,-0.129 0.341,-0.148 0.257,-0.041 0.518,-0.055 0.776,-0.075 0.716,-0.052 1.446,-0.217 2.145,-0.13 1.199,0.15 2.382,0.448 3.567,0.701 0.59,0.126 1.172,0.291 1.758,0.438 M -52.307,2.33 c -0.036,-0.071 -0.073,-0.143 -0.11,-0.216 0.25,-0.19 0.489,-0.393 0.749,-0.567 0.414,-0.276 0.814,-0.603 1.27,-0.78 0.97,-0.377 1.961,-0.71 2.964,-0.99 1.159,-0.323 2.332,-0.595 3.511,-0.833 0.418,-0.084 0.548,-0.309 0.638,-0.655 0.143,-0.553 -0.209,-0.792 -0.628,-0.948 0.255,-0.802 0.232,-1.069 -0.202,-1.258 -0.466,-0.203 -0.386,-0.567 -0.311,-0.891 0.089,-0.377 0.441,-0.317 0.729,-0.272 0.62,0.096 1.212,-0.388 1.195,-1.023 -0.004,-0.137 -0.121,-0.362 -0.227,-0.39 -0.328,-0.088 -0.682,-0.161 -1.017,-0.131 -1.043,0.093 -1.938,-0.178 -2.671,-0.927 0.31,0 0.622,-0.021 0.93,0.004 0.896,0.073 1.79,0.22 2.687,0.236 0.959,0.017 1.924,-0.157 2.88,-0.112 1.565,0.074 2.927,-0.667 4.396,-0.969 1.335,-0.274 2.627,-0.752 3.958,-1.05 1.317,-0.296 2.659,-0.485 3.991,-0.713 0.452,-0.077 0.907,-0.14 1.361,-0.199 0.358,-0.046 0.72,-0.063 1.075,-0.122 0.612,-0.099 1.218,-0.242 1.831,-0.323 0.201,-0.026 0.419,0.084 0.629,0.132 0.011,0.053 0.021,0.105 0.032,0.159 -0.536,0.333 -1.06,0.69 -1.611,0.994 -0.746,0.412 -1.497,0.823 -2.277,1.163 -0.999,0.439 -1.888,1.143 -3.027,1.26 -0.168,0.019 -0.321,0.214 -0.473,0.336 -0.094,0.075 -0.16,0.198 -0.264,0.248 -1.115,0.529 -2.234,1.05 -3.353,1.57 -0.416,0.194 -0.809,0.209 -1.215,-0.07 -0.342,-0.235 -0.582,-0.108 -0.547,0.294 0.035,0.403 -0.182,0.58 -0.475,0.746 -0.919,0.519 -1.844,1.027 -2.744,1.575 -0.173,0.106 -0.243,0.382 -0.41,0.663 0.693,0.074 1.168,0.007 1.58,-0.395 0.249,-0.242 0.544,-0.448 0.846,-0.619 0.434,-0.245 0.886,-0.463 1.345,-0.657 0.406,-0.173 0.79,-0.206 1.193,0.122 0.408,0.331 0.897,0.563 1.358,0.825 0.645,0.367 1.306,0.703 1.94,1.088 0.386,0.234 0.373,0.553 -0.02,0.782 -0.484,0.282 -0.969,0.595 -1.494,0.769 -0.45,0.148 -0.88,0.443 -1.434,0.25 -1.62,-0.564 -3.245,-1.119 -4.893,-1.59 -0.623,-0.179 -1.345,-0.273 -1.966,-0.141 -1.108,0.233 -2.181,0.648 -3.256,1.023 -0.612,0.213 -1.189,0.526 -1.8,0.744 -0.457,0.162 -0.948,0.223 -1.414,0.366 -1.31,0.402 -2.611,0.835 -3.924,1.228 -0.429,0.129 -0.882,0.179 -1.325,0.264 m 22.775,-13.869 c -0.792,0.235 -1.577,0.493 -2.378,0.693 -0.235,0.059 -0.535,0.011 -0.763,-0.088 -0.997,-0.429 -2.046,-0.593 -3.114,-0.702 -0.467,-0.047 -0.939,-0.133 -1.385,-0.273 -0.314,-0.099 -0.555,0.002 -0.678,0.21 -0.133,0.226 -0.232,0.556 -0.171,0.797 0.129,0.512 0.588,0.762 1.122,0.753 0.251,-0.004 0.503,0.029 0.793,0.047 -0.31,0.616 -0.889,0.625 -1.362,0.752 -0.687,0.185 -1.399,0.302 -2.108,0.366 -1.017,0.091 -2.045,0.192 -3.06,0.136 -1.258,-0.069 -2.512,-0.262 -3.757,-0.465 -0.819,-0.133 -1.626,-0.355 -2.425,-0.584 -0.294,-0.085 -0.536,-0.342 -0.827,-0.454 -0.736,-0.282 -1.487,-0.523 -2.23,-0.787 -0.581,-0.206 -1.758,0.346 -1.71,1.198 0.05,0.876 0.285,1.665 0.838,2.328 0.605,0.725 1.228,1.444 1.919,2.085 0.498,0.463 1.113,0.802 1.689,1.176 0.29,0.189 0.609,0.33 1.016,0.546 -0.214,0.154 -0.351,0.288 -0.515,0.364 -1.041,0.473 -2.119,0.878 -3.121,1.421 -0.621,0.337 -1.14,0.869 -1.688,1.333 -0.492,0.416 -0.959,0.863 -1.442,1.291 -0.531,0.473 -1.1,0.912 -1.587,1.427 -0.189,0.202 -0.31,0.601 -0.253,0.864 0.049,0.223 0.403,0.377 0.616,0.569 0.143,0.128 0.349,0.247 0.397,0.408 0.162,0.552 0.522,0.759 1.083,0.617 1.193,-0.302 2.4,-0.547 3.586,-0.869 1.051,-0.286 2.079,-0.653 3.12,-0.974 0.973,-0.298 1.964,-0.547 2.925,-0.88 1.12,-0.389 2.212,-0.857 3.324,-1.27 0.824,-0.306 1.646,-0.267 2.516,-0.09 1.709,0.35 3.33,0.938 4.936,1.582 0.181,0.074 0.323,0.243 0.587,0.45 -0.409,0 -0.718,-0.011 -1.027,0.002 -0.692,0.032 -1.069,0.373 -1.021,0.916 0.033,0.368 0.234,0.619 0.61,0.609 1.224,-0.029 2.447,-0.096 3.671,-0.127 0.39,-0.01 0.783,0.05 1.175,0.071 0.43,0.024 0.88,-0.031 1.29,0.073 0.899,0.23 1.778,0.537 2.666,0.812 -0.013,0.048 -0.025,0.097 -0.038,0.145 -1.005,0 -2.011,-0.004 -3.016,0.002 -0.573,0.004 -0.918,0.402 -0.898,0.958 0.021,0.566 0.516,0.494 0.808,0.551 1.374,0.272 2.743,0.187 4.125,-0.087 0.77,-0.151 1.59,-0.028 2.384,-0.082 0.915,-0.062 1.777,0.189 2.655,0.357 0.357,0.068 0.725,0.074 1.085,0.128 0.795,0.121 1.587,0.256 2.381,0.38 1.041,0.164 2.079,0.4 3.126,0.459 1.155,0.065 2.318,-0.034 3.478,-0.064 C -10.032,7.536 -9.88,7.517 -9.729,7.492 -8.86,7.35 -7.986,7.229 -7.124,7.049 -6.413,6.898 -5.719,6.674 -5.017,6.482 L -1.68,5.571 C -1.592,5.547 -1.505,5.518 -1.418,5.492 -0.811,5.312 -0.201,5.141 0.404,4.952 1.438,4.628 2.474,4.301 3.504,3.962 4.191,3.736 4.879,3.504 5.555,3.244 6.574,2.852 7.586,2.439 8.597,2.027 c 1.239,-0.506 2.421,-1.1 3.494,-1.925 0.493,-0.381 1.145,-0.551 1.71,-0.848 0.248,-0.131 0.504,-0.302 0.67,-0.521 0.327,-0.43 0.231,-0.848 -0.223,-1.129 C 13.122,-3.097 11.974,-3.762 10.865,-4.487 10.321,-4.845 9.822,-5.281 9.343,-5.723 8.695,-6.316 7.929,-6.629 7.106,-6.897 6.066,-7.236 5.07,-7.704 4.042,-8.079 2.59,-8.607 1.207,-9.292 -0.203,-9.915 c -1.023,-0.452 -2.008,-1.001 -3.166,-1.132 -0.808,-0.091 -1.587,-0.41 -2.39,-0.57 -1.366,-0.274 -2.743,-0.496 -4.111,-0.756 -0.672,-0.127 -1.33,-0.327 -2.005,-0.424 -0.465,-0.067 -0.947,-0.031 -1.421,-0.009 -0.301,0.015 -0.597,0.124 -0.896,0.133 -1.989,0.057 -3.978,0.089 -5.966,0.149 -0.518,0.015 -1.032,0.154 -1.547,0.141 -1.1,-0.027 -2.179,0.007 -3.245,0.341 -0.457,0.142 -0.958,0.183 -1.441,0.189 -0.193,0.003 -0.398,-0.198 -0.585,-0.325 -0.268,-0.179 -0.503,-0.424 -0.789,-0.56 -0.766,-0.367 -1.537,-0.737 -2.336,-1.021 -0.903,-0.323 -1.847,-0.588 -2.804,-0.25 -0.262,0.092 -0.571,0.359 -0.646,0.609 -0.178,0.591 0.244,0.896 0.978,0.698 0.524,-0.142 0.988,-0.016 1.439,0.186 0.56,0.251 1.096,0.558 1.642,0.84 -0.013,0.046 -0.027,0.091 -0.04,0.137" style="fill:#000000;fill-opacity:1;fill-rule:evenodd;stroke:none" id="SvgjsPath1025"></path>
            </g>
          </g>
        </g>
      </g>
    </g>
  </g>
</svg><style>@media (prefers-color-scheme: light) { :root { filter: none; } }
@media (prefers-color-scheme: dark) { :root { filter: invert(100%); } }
</style></svg>